<svg width="376" height="361" viewBox="0 0 376 361" fill="none" xmlns="http://www.w3.org/2000/svg">
<path fill-rule="evenodd" clip-rule="evenodd" d="M145.141 231.596L324.117 51.594V51.763L375.812 0C374.888 1.32 373.952 2.60501 373.027 3.89001C333.746 58.054 314.567 84.539 329.957 150.812L329.867 150.711C340.477 195.821 329.123 245.848 292.469 282.547C246.253 328.853 172.302 339.158 111.406 297.475L153.868 277.8C192.731 293.078 235.26 286.37 265.815 255.77C296.381 225.17 303.247 180.611 287.88 143.518C284.96 136.493 276.21 134.723 270.088 139.255L145.141 231.596ZM119.355 254.033L119.322 254.067L0 360.794C7.565 350.365 16.957 340.5 26.327 330.645C52.755 302.842 78.98 275.286 62.981 236.343C41.559 184.231 54.029 123.166 93.705 83.445C134.948 42.191 195.685 31.784 246.411 52.687C257.641 56.859 267.427 62.801 275.049 68.326L232.69 87.91C193.25 71.347 148.061 82.611 120.483 110.223C83.185 147.531 75.643 212.226 119.355 254.033Z" fill="white"/>
</svg>
