<svg width="260" height="244" viewBox="0 0 260 244" fill="none" xmlns="http://www.w3.org/2000/svg">
<path fill-rule="evenodd" clip-rule="evenodd" d="M211.065 55.273C212.951 52.853 214.606 50.643 216.354 48.503C217.164 47.496 217.094 46.732 216.308 45.679C208.728 35.714 208.01 24.651 212.373 13.425C215.648 4.97696 222.893 1.01896 231.746 0.174957C237.266 -0.346043 242.682 0.220968 247.705 2.90497C254.301 6.43497 258.143 11.817 259.393 19.246C260.388 25.172 260.203 30.958 258.525 36.698C255.551 46.859 248.248 52.125 238.238 53.456C229.928 54.566 221.504 54.706 213.125 55.273C212.477 55.319 211.817 55.273 211.065 55.273Z" fill="#027AFF"/>
<path fill-rule="evenodd" clip-rule="evenodd" d="M190.512 9.76782H140.448L100.811 100.152H44.775V10.1618H0V243.03H44.787V144.927H123.76C137.358 144.927 149.775 137 155.504 124.675V243.03H200.291V144.927C200.291 121.585 182.052 101.957 158.768 100.256V100.14H134.175C140.101 98.1166 145.547 94.8939 150.172 90.6728C154.798 86.4517 158.504 81.3227 161.059 75.6058L190.512 9.76782Z" fill="white"/>
</svg>
