<svg xmlns="http://www.w3.org/2000/svg" version="1.1" xmlns:xlink="http://www.w3.org/1999/xlink" width="491" height="808"><svg xmlns="http://www.w3.org/2000/svg" version="1.1" xmlns:xlink="http://www.w3.org/1999/xlink" width="491" height="808"><svg width="491" height="808" viewBox="0 0 491 808" fill="none" xmlns="http://www.w3.org/2000/svg">
<path d="M260.938 362.109C320.052 336.589 348.568 294.792 346.484 236.719C344.401 178.646 315.234 154.167 258.984 163.281C202.995 172.396 173.047 194.922 169.141 230.859C165.234 266.536 165.365 310.286 169.531 362.109C171.354 387.63 201.823 387.63 260.938 362.109ZM364.844 469.922C281.25 516.797 216.667 533.984 171.094 521.484C169.792 558.464 191.016 626.953 234.766 726.953L75.3906 807.031C25.1302 546.615 9.375 347.005 28.125 208.203C47.1354 69.401 148.177 2.73438 331.25 8.20312C433.854 23.8281 485.938 92.9688 487.5 215.625C489.323 338.281 448.438 423.047 364.844 469.922Z" fill="url(#paint0_radial_805_9)"></path>
<defs>
<radialGradient id="paint0_radial_805_9" cx="0" cy="0" r="1" gradientTransform="matrix(-63.7421 577.277 -570.543 -150.15 276.969 285.516)" gradientUnits="userSpaceOnUse">
<stop stop-color="#F0C692"></stop>
<stop offset="1" stop-color="#E1AF71"></stop>
</radialGradient>
</defs>
</svg></svg><style>@media (prefers-color-scheme: light) { :root { filter: none; } }
@media (prefers-color-scheme: dark) { :root { filter: none; } }
</style></svg>